<svg width="50" height="50" viewBox="0 0 50 50" fill="none" xmlns="http://www.w3.org/2000/svg">
<path d="M25.0001 45.9C30.6001 45.9 35.8501 43.75 39.8001 39.8C43.7501 35.85 45.9001 30.6 45.9001 25C45.9001 19.4 43.7501 14.15 39.8001 10.2C35.8501 6.25004 30.6001 4.10004 25.0001 4.10004C19.4001 4.10004 14.1501 6.25004 10.2001 10.2C6.2501 14.15 4.1001 19.4 4.1001 25C4.1001 30.6 6.2501 35.85 10.2001 39.8C14.1501 43.75 19.4001 45.9 25.0001 45.9ZM26.2001 42.35C25.8001 42.4 25.4001 42.4 25.0001 42.4C24.4501 42.4 23.9001 42.35 23.3501 42.3C21.5501 39.5 20.2001 36.5 19.4001 33.35H28.2501C28.5501 34.1 29.1001 34.8 29.7501 35.25C28.9001 37.75 27.7001 40.1 26.2001 42.35V42.35ZM30.9501 41.35C31.9001 39.6 32.6501 37.85 33.2501 36C34.7001 35.7 35.8501 34.7 36.4001 33.35H40.2501C38.2501 37 34.9001 39.85 30.9501 41.35ZM42.3501 25C42.3501 26.65 42.1001 28.25 41.7001 29.8H36.3001C36.0001 29.15 35.5001 28.55 34.9001 28.1C35.0001 27 35.0501 25.9 35.0501 24.8C35.0501 23.25 34.9501 21.7 34.7501 20.2H41.6501C42.1501 21.7 42.3501 23.35 42.3501 25V25ZM40.2501 16.65H34.1501C33.5001 13.9 32.5501 11.3 31.2501 8.80004C35.0501 10.25 38.2501 13.1 40.2501 16.65ZM31.5501 24.8C31.5501 25.65 31.5001 26.5 31.4501 27.35C30.0501 27.65 28.9001 28.55 28.3501 29.8H18.7001C18.5001 28.3 18.3501 26.75 18.3501 25.25C18.3501 24.3 18.4001 23.35 18.5001 22.4C19.8001 22.15 20.8501 21.3 21.5001 20.2H31.2501C31.4501 21.7 31.5501 23.25 31.5501 24.8V24.8ZM23.7001 7.70004C24.1501 7.65004 24.6001 7.65004 25.0001 7.65004C25.5001 7.65004 26.0001 7.65004 26.5001 7.70004C28.3001 10.5 29.6501 13.5 30.4501 16.65H21.7501C21.4501 15.8 20.9001 15.05 20.2001 14.5C21.1001 12.1 22.2501 9.85004 23.7001 7.70004ZM18.9501 8.70004C18.1001 10.3 17.3501 12 16.7501 13.7C15.2001 14 13.9501 15.15 13.4501 16.6H9.8001C11.7501 13.05 15.0001 10.2 18.9501 8.70004ZM7.6501 25C7.6501 23.35 7.9001 21.7 8.3501 20.2H13.8001C14.1001 20.75 14.5501 21.25 15.0501 21.65C14.9501 22.85 14.8501 24.05 14.8501 25.25C14.8501 26.8 14.9501 28.3 15.1501 29.8H8.3501C7.8501 28.25 7.6501 26.65 7.6501 25ZM15.7501 33.3C16.4001 36 17.3501 38.65 18.6501 41.15C14.8501 39.65 11.7001 36.85 9.7501 33.3H15.7501Z" fill="#4E5166"/>
</svg>
