<svg width="26" height="24" viewBox="0 0 26 24" fill="none" xmlns="http://www.w3.org/2000/svg">
<g filter="url(#filter0_d_3_433)">
<path d="M11.8435 15.688C13.7475 15.688 15.5325 15 16.8755 13.736C18.2185 12.472 18.9495 10.792 18.9495 9C18.9495 7.208 18.2185 5.528 16.8755 4.264C15.5325 3 13.7475 2.312 11.8435 2.312C9.9395 2.312 8.1545 3 6.8115 4.264C5.4685 5.528 4.7375 7.208 4.7375 9C4.7375 10.792 5.4685 12.472 6.8115 13.736C8.1545 15 9.9395 15.688 11.8435 15.688ZM12.2515 14.552C12.1155 14.568 11.9795 14.568 11.8435 14.568C11.6565 14.568 11.4695 14.552 11.2825 14.536C10.6705 13.64 10.2115 12.68 9.9395 11.672H12.9485C13.0505 11.912 13.2375 12.136 13.4585 12.28C13.1695 13.08 12.7615 13.832 12.2515 14.552ZM13.8665 14.232C14.1895 13.672 14.4445 13.112 14.6485 12.52C15.1415 12.424 15.5325 12.104 15.7195 11.672H17.0285C16.3485 12.84 15.2095 13.752 13.8665 14.232ZM17.7425 9C17.7425 9.528 17.6575 10.04 17.5215 10.536H15.6855C15.5835 10.328 15.4135 10.136 15.2095 9.992C15.2435 9.64 15.2605 9.288 15.2605 8.936C15.2605 8.44 15.2265 7.944 15.1585 7.464H17.5045C17.6745 7.944 17.7425 8.472 17.7425 9ZM17.0285 6.328H14.9545C14.7335 5.448 14.4105 4.616 13.9685 3.816C15.2605 4.28 16.3485 5.192 17.0285 6.328ZM14.0705 8.936C14.0705 9.208 14.0535 9.48 14.0365 9.752C13.5605 9.848 13.1695 10.136 12.9825 10.536H9.7015C9.6335 10.056 9.5825 9.56 9.5825 9.08C9.5825 8.776 9.5995 8.472 9.6335 8.168C10.0755 8.088 10.4325 7.816 10.6535 7.464H13.9685C14.0365 7.944 14.0705 8.44 14.0705 8.936ZM11.4015 3.464C11.5545 3.448 11.7075 3.448 11.8435 3.448C12.0135 3.448 12.1835 3.448 12.3535 3.464C12.9655 4.36 13.4245 5.32 13.6965 6.328H10.7385C10.6365 6.056 10.4495 5.816 10.2115 5.64C10.5175 4.872 10.9085 4.152 11.4015 3.464ZM9.7865 3.784C9.4975 4.296 9.2425 4.84 9.0385 5.384C8.5115 5.48 8.0865 5.848 7.9165 6.312H6.6755C7.3385 5.176 8.4435 4.264 9.7865 3.784ZM5.9445 9C5.9445 8.472 6.0295 7.944 6.1825 7.464H8.0355C8.1375 7.64 8.2905 7.8 8.4605 7.928C8.4265 8.312 8.3925 8.696 8.3925 9.08C8.3925 9.576 8.4265 10.056 8.4945 10.536H6.1825C6.0125 10.04 5.9445 9.528 5.9445 9ZM8.6985 11.656C8.9195 12.52 9.2425 13.368 9.6845 14.168C8.3925 13.688 7.3215 12.792 6.6585 11.656H8.6985Z" fill="#4E5166"/>
</g>
<defs>
<filter id="filter0_d_3_433" x="0.343506" y="0" width="25" height="24" filterUnits="userSpaceOnUse" color-interpolation-filters="sRGB">
<feFlood flood-opacity="0" result="BackgroundImageFix"/>
<feColorMatrix in="SourceAlpha" type="matrix" values="0 0 0 0 0 0 0 0 0 0 0 0 0 0 0 0 0 0 127 0" result="hardAlpha"/>
<feOffset dx="1" dy="3"/>
<feGaussianBlur stdDeviation="2"/>
<feColorMatrix type="matrix" values="0 0 0 0 0 0 0 0 0 0 0 0 0 0 0 0 0 0 0.39 0"/>
<feBlend mode="normal" in2="BackgroundImageFix" result="effect1_dropShadow_3_433"/>
<feBlend mode="normal" in="SourceGraphic" in2="effect1_dropShadow_3_433" result="shape"/>
</filter>
</defs>
</svg>
