<svg width="235" height="44" viewBox="0 0 235 44" fill="none" xmlns="http://www.w3.org/2000/svg">
<g filter="url(#filter0_d_3_438)">
<path d="M18.8856 29.5423C15.0416 29.5423 11.8236 28.2734 9.23157 25.7357C6.63953 23.198 5.34351 20.0302 5.34351 16.2323C5.34351 12.5034 6.63953 9.36151 9.23157 6.80655C11.8236 4.26885 15.0416 3 18.8856 3C22.7472 3 26.0622 4.18253 28.8306 6.5476L25.2335 10.4059C23.382 8.99035 21.266 8.28256 18.8856 8.28256C16.4523 8.29982 14.4862 9.05077 12.9874 10.5354C11.5062 12.0028 10.7656 13.8845 10.7656 16.1805C10.7656 18.6491 11.515 20.6085 13.0138 22.0586C14.5126 23.5088 16.4787 24.2338 18.9121 24.2338C20.8693 24.2338 22.3681 23.8627 23.4084 23.1203V18.5628L19.8113 18.5887V13.6169H28.8306V26.0206C26.0798 28.3684 22.7648 29.5423 18.8856 29.5423ZM38.5375 11.8302V13.7982C39.8423 12.5034 41.4205 11.8561 43.2719 11.8561C43.8538 11.8561 44.4093 11.8992 44.9383 11.9855L44.1448 16.8797C43.5629 16.3618 42.7253 16.0856 41.6321 16.051C40.3978 16.1373 39.3663 17.0091 38.5375 18.6664V29.5423H33.4857V12.374L38.5375 11.8302ZM56.4438 29.7235C53.8164 29.7235 51.6211 28.8604 49.8579 27.134C48.1122 25.4077 47.2394 23.2671 47.2394 20.7121C47.2394 18.1399 48.1122 15.9906 49.8579 14.2643C51.6211 12.538 53.8164 11.6748 56.4438 11.6748C59.0711 11.6748 61.2664 12.538 63.0297 14.2643C64.7929 15.9906 65.6746 18.1399 65.6746 20.7121C65.6746 23.2843 64.7929 25.425 63.0297 27.134C61.2664 28.8604 59.0711 29.7235 56.4438 29.7235ZM56.4438 25.4509C57.8015 25.4509 58.9124 24.9934 59.7764 24.0784C60.6404 23.1808 61.0724 22.0586 61.0724 20.7121C61.0724 19.3656 60.6404 18.2435 59.7764 17.3458C58.9124 16.4308 57.7927 15.9733 56.4173 15.9733C55.0596 15.9733 53.9487 16.4308 53.0847 17.3458C52.2383 18.2435 51.8151 19.3656 51.8151 20.7121C51.8151 22.0586 52.2383 23.1808 53.0847 24.0784C53.9487 24.9934 55.0684 25.4509 56.4438 25.4509ZM80.0102 23.2757V11.8302H85.062V29.5423H80.0102V27.9368C78.7935 29.0071 77.3476 29.5423 75.6725 29.5423C73.3802 29.5423 71.6345 28.8604 70.4355 27.4966C69.2188 26.1328 68.6105 24.5704 68.6105 22.8096V11.8302H73.6888V21.5666C73.6888 22.7405 73.9885 23.6555 74.588 24.3115C75.1876 24.9675 76.0957 25.3128 77.3123 25.3473C78.3703 25.2782 79.2696 24.5877 80.0102 23.2757ZM94.4251 37L89.3733 36.9741V12.374L94.4251 11.8302V13.2544C95.7828 12.3049 97.1141 11.8302 98.419 11.8302C101.187 11.8302 103.383 12.7192 105.005 14.4973C106.645 16.2582 107.465 18.3211 107.465 20.6862C107.465 23.0513 106.645 25.1142 105.005 26.8751C103.383 28.6532 101.187 29.5423 98.419 29.5423C96.6028 29.4214 95.2715 28.9381 94.4251 28.0922V37ZM94.4251 19.0807V21.9551C94.672 23.9403 95.9415 25.1056 98.2338 25.4509C101.126 25.2265 102.757 23.7591 103.127 21.0487C103.004 17.7342 101.372 16.0165 98.2338 15.8957C95.9415 16.2582 94.672 17.3199 94.4251 19.0807ZM119.235 29.7235C116.607 29.7235 114.421 28.8604 112.675 27.134C110.912 25.4077 110.03 23.2671 110.03 20.7121C110.03 18.1399 110.912 15.9906 112.675 14.2643C114.421 12.538 116.607 11.6748 119.235 11.6748C121.862 11.6748 124.057 12.538 125.821 14.2643C127.584 15.9906 128.465 18.1399 128.465 20.7121C128.465 23.2843 127.584 25.425 125.821 27.134C124.057 28.8604 121.862 29.7235 119.235 29.7235ZM119.235 25.4509C120.61 25.4509 121.721 24.9934 122.567 24.0784C123.431 23.1808 123.863 22.0586 123.863 20.7121C123.863 19.3656 123.431 18.2435 122.567 17.3458C121.721 16.4308 120.601 15.9733 119.208 15.9733C117.85 15.9733 116.74 16.4308 115.876 17.3458C115.029 18.2435 114.606 19.3656 114.606 20.7121C114.606 22.0586 115.029 23.1808 115.876 24.0784C116.74 24.9934 117.859 25.4509 119.235 25.4509ZM136.903 18.2262V29.5423H131.825V12.374L136.903 11.8302V13.4097C138.031 12.374 139.477 11.8561 141.241 11.8561C143.515 11.8561 145.261 12.5293 146.478 13.8759C147.8 12.5293 149.784 11.8561 152.429 11.8561C154.721 11.8561 156.475 12.5293 157.692 13.8759C158.891 15.2397 159.491 16.8106 159.491 18.5887V29.5423H154.439V19.8058C154.439 18.6319 154.165 17.7169 153.619 17.0609C153.072 16.4222 152.191 16.0856 150.974 16.051C149.969 16.1201 149.105 16.7675 148.382 17.9931C148.311 18.3557 148.276 18.7268 148.276 19.1066V29.5423H143.224V19.8058C143.224 18.6319 142.951 17.7169 142.404 17.0609C141.858 16.4222 140.976 16.0856 139.759 16.051C138.648 16.1201 137.696 16.8451 136.903 18.2262ZM166.288 16.9832L164.304 13.9794C166.597 12.5638 169.25 11.8561 172.266 11.8561C174.435 11.8561 176.145 12.443 177.397 13.6169C178.666 14.8081 179.301 16.5776 179.301 18.9254V29.5423H174.249V28.1439C172.768 29.0762 171.437 29.5423 170.256 29.5423C167.857 29.5423 166.05 29.0416 164.833 28.0404C163.634 27.0391 163.035 25.658 163.035 23.8972C163.035 22.2399 163.608 20.7639 164.754 19.4692C165.883 18.1744 167.716 17.527 170.256 17.527C171.437 17.527 172.768 17.8809 174.249 18.5887V18.0449C174.214 16.7502 173.244 16.0424 171.34 15.9216C169.171 15.9216 167.487 16.2755 166.288 16.9832ZM174.249 24.2338V22.2399C173.773 21.325 172.627 20.8675 170.811 20.8675C168.642 21.1092 167.496 21.9378 167.373 23.3534C167.496 24.7517 168.642 25.5113 170.811 25.6321C172.627 25.6321 173.773 25.166 174.249 24.2338ZM188.902 18.3039V29.5423H183.824V12.374L188.902 11.8302V13.4356C190.119 12.3826 191.565 11.8561 193.24 11.8561C195.532 11.8561 197.278 12.5293 198.477 13.8759C199.676 15.2397 200.276 16.8106 200.276 18.5887V29.5423H195.224V19.8058C195.224 18.6319 194.924 17.7169 194.324 17.0609C193.707 16.4222 192.79 16.0856 191.574 16.051C190.533 16.1201 189.643 16.871 188.902 18.3039ZM209.586 29.5423H204.534V11.8302H209.586V29.5423ZM204.349 7.60929C204.349 8.31708 204.587 8.90404 205.063 9.37014C205.557 9.83625 206.227 10.0693 207.073 10.0693C207.902 10.0693 208.563 9.83625 209.057 9.37014C209.533 8.90404 209.771 8.31708 209.771 7.60929C209.771 6.9015 209.533 6.30591 209.057 5.82254C208.563 5.33917 207.884 5.09749 207.02 5.09749C206.209 5.09749 205.557 5.33917 205.063 5.82254C204.587 6.30591 204.349 6.9015 204.349 7.60929ZM216.33 16.9832L214.347 13.9794C216.639 12.5638 219.293 11.8561 222.308 11.8561C224.477 11.8561 226.196 12.443 227.466 13.6169C228.718 14.8081 229.344 16.5776 229.344 18.9254V29.5423H224.292V28.1439C222.828 29.0762 221.506 29.5423 220.324 29.5423C217.909 29.5423 216.101 29.0416 214.902 28.0404C213.685 27.0391 213.077 25.658 213.077 23.8972C213.077 22.2399 213.65 20.7639 214.796 19.4692C215.925 18.1744 217.767 17.527 220.324 17.527C221.488 17.527 222.811 17.8809 224.292 18.5887V18.0449C224.274 16.7502 223.313 16.0424 221.409 15.9216C219.24 15.9216 217.547 16.2755 216.33 16.9832ZM224.292 24.2338V22.2399C223.816 21.325 222.669 20.8675 220.853 20.8675C218.684 21.1092 217.538 21.9378 217.415 23.3534C217.538 24.7517 218.684 25.5113 220.853 25.6321C222.669 25.6321 223.816 25.166 224.292 24.2338Z" fill="#FD2D01"/>
</g>
<defs>
<filter id="filter0_d_3_438" x="0.343506" y="0" width="234" height="44" filterUnits="userSpaceOnUse" color-interpolation-filters="sRGB">
<feFlood flood-opacity="0" result="BackgroundImageFix"/>
<feColorMatrix in="SourceAlpha" type="matrix" values="0 0 0 0 0 0 0 0 0 0 0 0 0 0 0 0 0 0 127 0" result="hardAlpha"/>
<feOffset dy="2"/>
<feGaussianBlur stdDeviation="2.5"/>
<feColorMatrix type="matrix" values="0 0 0 0 0 0 0 0 0 0 0 0 0 0 0 0 0 0 0.42 0"/>
<feBlend mode="normal" in2="BackgroundImageFix" result="effect1_dropShadow_3_438"/>
<feBlend mode="normal" in="SourceGraphic" in2="effect1_dropShadow_3_438" result="shape"/>
</filter>
</defs>
</svg>
