<svg width="75" height="72" viewBox="0 0 75 72" fill="none" xmlns="http://www.w3.org/2000/svg">
<g filter="url(#filter0_d_3_440)">
<path d="M36.3435 58.752C43.7355 58.752 50.6655 56 55.8795 50.944C61.0935 45.888 63.9315 39.168 63.9315 32C63.9315 24.832 61.0935 18.112 55.8795 13.056C50.6655 8.00001 43.7355 5.24802 36.3435 5.24802C28.9515 5.24802 22.0215 8.00001 16.8075 13.056C11.5935 18.112 8.75552 24.832 8.75552 32C8.75552 39.168 11.5935 45.888 16.8075 50.944C22.0215 56 28.9515 58.752 36.3435 58.752ZM37.9275 54.208C37.3995 54.272 36.8715 54.272 36.3435 54.272C35.6175 54.272 34.8915 54.208 34.1655 54.144C31.7895 50.56 30.0075 46.72 28.9515 42.688H40.6335C41.0295 43.648 41.7555 44.544 42.6135 45.12C41.4915 48.32 39.9075 51.328 37.9275 54.208ZM44.1975 52.928C45.4515 50.688 46.4415 48.448 47.2335 46.08C49.1475 45.696 50.6655 44.416 51.3915 42.688H56.4735C53.8335 47.36 49.4115 51.008 44.1975 52.928ZM59.2455 32C59.2455 34.112 58.9155 36.16 58.3875 38.144H51.2595C50.8635 37.312 50.2035 36.544 49.4115 35.968C49.5435 34.56 49.6095 33.152 49.6095 31.744C49.6095 29.76 49.4775 27.776 49.2135 25.856H58.3215C58.9815 27.776 59.2455 29.888 59.2455 32ZM56.4735 21.312H48.4215C47.5635 17.792 46.3095 14.464 44.5935 11.264C49.6095 13.12 53.8335 16.768 56.4735 21.312ZM44.9895 31.744C44.9895 32.832 44.9235 33.92 44.8575 35.008C43.0095 35.392 41.4915 36.544 40.7655 38.144H28.0275C27.7635 36.224 27.5655 34.24 27.5655 32.32C27.5655 31.104 27.6315 29.888 27.7635 28.672C29.4795 28.352 30.8655 27.264 31.7235 25.856H44.5935C44.8575 27.776 44.9895 29.76 44.9895 31.744ZM34.6275 9.85601C35.2215 9.79201 35.8155 9.79202 36.3435 9.79202C37.0035 9.79202 37.6635 9.79201 38.3235 9.85601C40.6995 13.44 42.4815 17.28 43.5375 21.312H32.0535C31.6575 20.224 30.9315 19.264 30.0075 18.56C31.1955 15.488 32.7135 12.608 34.6275 9.85601ZM28.3575 11.136C27.2355 13.184 26.2455 15.36 25.4535 17.536C23.4075 17.92 21.7575 19.392 21.0975 21.248H16.2795C18.8535 16.704 23.1435 13.056 28.3575 11.136ZM13.4415 32C13.4415 29.888 13.7715 27.776 14.3655 25.856H21.5595C21.9555 26.56 22.5495 27.2 23.2095 27.712C23.0775 29.248 22.9455 30.784 22.9455 32.32C22.9455 34.304 23.0775 36.224 23.3415 38.144H14.3655C13.7055 36.16 13.4415 34.112 13.4415 32ZM24.1335 42.624C24.9915 46.08 26.2455 49.472 27.9615 52.672C22.9455 50.752 18.7875 47.168 16.2135 42.624H24.1335Z" fill="#FFD7D7"/>
</g>
<defs>
<filter id="filter0_d_3_440" x="0.343506" y="0" width="74" height="72" filterUnits="userSpaceOnUse" color-interpolation-filters="sRGB">
<feFlood flood-opacity="0" result="BackgroundImageFix"/>
<feColorMatrix in="SourceAlpha" type="matrix" values="0 0 0 0 0 0 0 0 0 0 0 0 0 0 0 0 0 0 127 0" result="hardAlpha"/>
<feOffset dx="1" dy="4"/>
<feGaussianBlur stdDeviation="2"/>
<feColorMatrix type="matrix" values="0 0 0 0 0 0 0 0 0 0 0 0 0 0 0 0 0 0 0.31 0"/>
<feBlend mode="normal" in2="BackgroundImageFix" result="effect1_dropShadow_3_440"/>
<feBlend mode="normal" in="SourceGraphic" in2="effect1_dropShadow_3_440" result="shape"/>
</filter>
</defs>
</svg>
